<svg version="1.2" xmlns="http://www.w3.org/2000/svg" viewBox="0 0 7 7" width="7" height="7">
	<title>dots-svg</title>
	<style>
		.s0 { fill: #000000 } 
	</style>
	<path id="Layer" class="s0" d="m1.2 6.5q-0.3 0-0.5-0.2-0.2-0.2-0.2-0.5 0-0.3 0.2-0.6 0.2-0.2 0.5-0.2 0.3 0 0.6 0.2 0.2 0.3 0.2 0.6 0 0.3-0.2 0.5-0.3 0.2-0.6 0.2zm2.3 0q-0.3 0-0.5-0.2-0.3-0.2-0.3-0.5 0-0.3 0.3-0.6 0.2-0.2 0.5-0.2 0.3 0 0.5 0.2 0.3 0.3 0.3 0.6 0 0.3-0.3 0.5-0.2 0.2-0.5 0.2zm2.3 0q-0.3 0-0.6-0.2-0.2-0.2-0.2-0.5 0-0.3 0.2-0.6 0.3-0.2 0.6-0.2 0.3 0 0.5 0.2 0.2 0.3 0.2 0.6 0 0.3-0.2 0.5-0.2 0.2-0.5 0.2zm-4.6-2.2q-0.3 0-0.5-0.3-0.2-0.2-0.2-0.5 0-0.3 0.2-0.5 0.2-0.2 0.5-0.2 0.3 0 0.6 0.2 0.2 0.2 0.2 0.5 0 0.3-0.2 0.5-0.3 0.3-0.6 0.3zm2.3 0q-0.3 0-0.5-0.3-0.3-0.2-0.3-0.5 0-0.3 0.3-0.5 0.2-0.2 0.5-0.2 0.3 0 0.5 0.2 0.3 0.2 0.3 0.5 0 0.3-0.3 0.5-0.2 0.3-0.5 0.3zm2.3 0q-0.3 0-0.6-0.3-0.2-0.2-0.2-0.5 0-0.3 0.2-0.5 0.3-0.2 0.6-0.2 0.3 0 0.5 0.2 0.2 0.2 0.2 0.5 0 0.3-0.2 0.5-0.2 0.3-0.5 0.3zm-4.6-2.3q-0.3 0-0.5-0.2-0.2-0.2-0.2-0.6 0-0.3 0.2-0.5 0.2-0.2 0.5-0.2 0.3 0 0.6 0.2 0.2 0.2 0.2 0.5 0 0.4-0.2 0.6-0.3 0.2-0.6 0.2zm2.3 0q-0.3 0-0.5-0.2-0.3-0.2-0.3-0.6 0-0.3 0.3-0.5 0.2-0.2 0.5-0.2 0.3 0 0.5 0.2 0.3 0.2 0.3 0.5 0 0.4-0.3 0.6-0.2 0.2-0.5 0.2zm2.3 0q-0.3 0-0.6-0.2-0.2-0.2-0.2-0.6 0-0.3 0.2-0.5 0.3-0.2 0.6-0.2 0.3 0 0.5 0.2 0.2 0.2 0.2 0.5 0 0.4-0.2 0.6-0.2 0.2-0.5 0.2z"/>
</svg>