<svg version="1.2" xmlns="http://www.w3.org/2000/svg" viewBox="0 0 70 70" width="70" height="70">
	<title>dots-svg</title>
	<style>
		.s0 { fill: #000000 } 
	</style>
	<path id="Layer" class="s0" d="m12.3 65.4q-3.2 0-5.4-2.3-2.2-2.2-2.2-5.3 0-3.1 2.2-5.3 2.2-2.3 5.4-2.3 3.1 0 5.3 2.3 2.3 2.2 2.3 5.3 0 3.1-2.3 5.3-2.2 2.3-5.3 2.3zm22.7 0q-3.1 0-5.3-2.3-2.3-2.2-2.3-5.3 0-3.1 2.3-5.3 2.2-2.3 5.3-2.3 3.2 0 5.4 2.3 2.2 2.2 2.2 5.3 0 3.1-2.2 5.3-2.2 2.3-5.4 2.3zm22.8 0q-3.1 0-5.3-2.3-2.3-2.2-2.3-5.3 0-3.1 2.3-5.3 2.2-2.3 5.3-2.3 3.2 0 5.4 2.3 2.2 2.2 2.2 5.3 0 3.1-2.2 5.3-2.2 2.3-5.4 2.3zm-45.5-22.7q-3.2 0-5.4-2.3-2.2-2.2-2.2-5.3 0-3.1 2.2-5.4 2.2-2.2 5.4-2.2 3.1 0 5.3 2.2 2.3 2.3 2.3 5.4 0 3.1-2.3 5.3-2.2 2.3-5.3 2.3zm22.7 0q-3.1 0-5.3-2.3-2.3-2.2-2.3-5.3 0-3.1 2.3-5.4 2.2-2.2 5.3-2.2 3.2 0 5.4 2.2 2.2 2.3 2.2 5.4 0 3.1-2.2 5.3-2.2 2.3-5.4 2.3zm22.8 0q-3.1 0-5.3-2.3-2.3-2.2-2.3-5.3 0-3.1 2.3-5.4 2.2-2.2 5.3-2.2 3.2 0 5.4 2.2 2.2 2.3 2.2 5.4 0 3.1-2.2 5.3-2.2 2.3-5.4 2.3zm-45.5-22.7q-3.2 0-5.4-2.3-2.2-2.2-2.2-5.3 0-3.1 2.2-5.4 2.2-2.2 5.4-2.2 3.1 0 5.3 2.2 2.3 2.3 2.3 5.4 0 3.1-2.3 5.3-2.2 2.3-5.3 2.3zm22.7 0q-3.1 0-5.3-2.3-2.3-2.2-2.3-5.3 0-3.1 2.3-5.4 2.2-2.2 5.3-2.2 3.2 0 5.4 2.2 2.2 2.3 2.2 5.4 0 3.1-2.2 5.3-2.2 2.3-5.4 2.3zm22.8 0q-3.1 0-5.3-2.3-2.3-2.2-2.3-5.3 0-3.1 2.3-5.4 2.2-2.2 5.3-2.2 3.2 0 5.4 2.2 2.2 2.3 2.2 5.4 0 3.1-2.2 5.3-2.2 2.3-5.4 2.3z"/>
</svg>