<svg version="1.2" xmlns="http://www.w3.org/2000/svg" viewBox="0 0 12 12" width="12" height="12">
	<title>dots-svg</title>
	<style>
		.s0 { fill: #000000 } 
	</style>
	<path id="Layer" class="s0" d="m2.1 11.2q-0.5 0-0.9-0.4-0.4-0.4-0.4-0.9 0-0.5 0.4-0.9 0.4-0.4 0.9-0.4 0.5 0 0.9 0.4 0.4 0.4 0.4 0.9 0 0.5-0.4 0.9-0.4 0.4-0.9 0.4zm3.9 0q-0.5 0-0.9-0.4-0.4-0.4-0.4-0.9 0-0.5 0.4-0.9 0.4-0.4 0.9-0.4 0.5 0 0.9 0.4 0.4 0.4 0.4 0.9 0 0.5-0.4 0.9-0.4 0.4-0.9 0.4zm3.9 0q-0.5 0-0.9-0.4-0.4-0.4-0.4-0.9 0-0.5 0.4-0.9 0.4-0.4 0.9-0.4 0.6 0 0.9 0.4 0.4 0.4 0.4 0.9 0 0.5-0.4 0.9-0.3 0.4-0.9 0.4zm-7.8-3.9q-0.5 0-0.9-0.4-0.4-0.3-0.4-0.9 0-0.5 0.4-0.9 0.4-0.4 0.9-0.4 0.5 0 0.9 0.4 0.4 0.4 0.4 0.9 0 0.6-0.4 0.9-0.4 0.4-0.9 0.4zm3.9 0q-0.5 0-0.9-0.4-0.4-0.3-0.4-0.9 0-0.5 0.4-0.9 0.4-0.4 0.9-0.4 0.5 0 0.9 0.4 0.4 0.4 0.4 0.9 0 0.6-0.4 0.9-0.4 0.4-0.9 0.4zm3.9 0q-0.5 0-0.9-0.4-0.4-0.3-0.4-0.9 0-0.5 0.4-0.9 0.4-0.4 0.9-0.4 0.6 0 0.9 0.4 0.4 0.4 0.4 0.9 0 0.6-0.4 0.9-0.3 0.4-0.9 0.4zm-7.8-3.9q-0.5 0-0.9-0.4-0.4-0.3-0.4-0.9 0-0.5 0.4-0.9 0.4-0.4 0.9-0.4 0.5 0 0.9 0.4 0.4 0.4 0.4 0.9 0 0.6-0.4 0.9-0.4 0.4-0.9 0.4zm3.9 0q-0.5 0-0.9-0.4-0.4-0.3-0.4-0.9 0-0.5 0.4-0.9 0.4-0.4 0.9-0.4 0.5 0 0.9 0.4 0.4 0.4 0.4 0.9 0 0.6-0.4 0.9-0.4 0.4-0.9 0.4zm3.9 0q-0.5 0-0.9-0.4-0.4-0.3-0.4-0.9 0-0.5 0.4-0.9 0.4-0.4 0.9-0.4 0.6 0 0.9 0.4 0.4 0.4 0.4 0.9 0 0.6-0.4 0.9-0.3 0.4-0.9 0.4z"/>
</svg>