<svg version="1.2" xmlns="http://www.w3.org/2000/svg" viewBox="0 0 737 740" width="737" height="740">
	<title>dots-svg</title>
	<style>
		.s0 { fill: #000000 } 
	</style>
	<path id="Layer" class="s0" d="m129 691q-33 0-56.5-23.5-23.5-23.5-23.5-56.5 0-33 23.5-56.5 23.5-23.5 56.5-23.5 33 0 56.5 23.5 23.5 23.5 23.5 56.5 0 33-23.5 56.5-23.5 23.5-56.5 23.5zm240 0q-33 0-56.5-23.5-23.5-23.5-23.5-56.5 0-33 23.5-56.5 23.5-23.5 56.5-23.5 33 0 56.5 23.5 23.5 23.5 23.5 56.5 0 33-23.5 56.5-23.5 23.5-56.5 23.5zm240 0q-33 0-56.5-23.5-23.5-23.5-23.5-56.5 0-33 23.5-56.5 23.5-23.5 56.5-23.5 33 0 56.5 23.5 23.5 23.5 23.5 56.5 0 33-23.5 56.5-23.5 23.5-56.5 23.5zm-480-240q-33 0-56.5-23.5-23.5-23.5-23.5-56.5 0-33 23.5-56.5 23.5-23.5 56.5-23.5 33 0 56.5 23.5 23.5 23.5 23.5 56.5 0 33-23.5 56.5-23.5 23.5-56.5 23.5zm240 0q-33 0-56.5-23.5-23.5-23.5-23.5-56.5 0-33 23.5-56.5 23.5-23.5 56.5-23.5 33 0 56.5 23.5 23.5 23.5 23.5 56.5 0 33-23.5 56.5-23.5 23.5-56.5 23.5zm240 0q-33 0-56.5-23.5-23.5-23.5-23.5-56.5 0-33 23.5-56.5 23.5-23.5 56.5-23.5 33 0 56.5 23.5 23.5 23.5 23.5 56.5 0 33-23.5 56.5-23.5 23.5-56.5 23.5zm-480-240q-33 0-56.5-23.5-23.5-23.5-23.5-56.5 0-33 23.5-56.5 23.5-23.5 56.5-23.5 33 0 56.5 23.5 23.5 23.5 23.5 56.5 0 33-23.5 56.5-23.5 23.5-56.5 23.5zm240 0q-33 0-56.5-23.5-23.5-23.5-23.5-56.5 0-33 23.5-56.5 23.5-23.5 56.5-23.5 33 0 56.5 23.5 23.5 23.5 23.5 56.5 0 33-23.5 56.5-23.5 23.5-56.5 23.5zm240 0q-33 0-56.5-23.5-23.5-23.5-23.5-56.5 0-33 23.5-56.5 23.5-23.5 56.5-23.5 33 0 56.5 23.5 23.5 23.5 23.5 56.5 0 33-23.5 56.5-23.5 23.5-56.5 23.5z"/>
</svg>